<svg xmlns="http://www.w3.org/2000/svg" viewBox="0 0 1024 1024">
  <rect width="1024" height="1024" rx="220" fill="#0f766e"/>
  <path d="M178 560c95-132 218-198 369-198 119 0 225 42 319 125 19 17 19 46 0 63-94 83-200 125-319 125-151 0-274-66-369-198-18-25-18-59 0-84Z" fill="#f8fafc"/>
  <path d="M695 375c40 36 69 84 86 143-17 59-46 107-86 143 90-12 164-50 221-113 15-17 15-43 0-60-57-63-131-101-221-113Z" fill="#facc15"/>
  <circle cx="385" cy="498" r="44" fill="#0f766e"/>
  <path d="M205 703c111 51 222 76 333 76 86 0 174-16 264-47" fill="none" stroke="#99f6e4" stroke-width="52" stroke-linecap="round"/>
</svg>
